<svg xmlns="http://www.w3.org/2000/svg" viewBox="0 0 512 512">
    <rect width="512" height="512" rx="96" fill="#000000"/>
    <!-- the Nethermind emblem, extracted from the wordmark in Nethermind.Runner/wwwroot/nethermind.svg -->
    <svg x="76" y="166" width="360" height="180" viewBox="0 0 120.5 60.2">
        <path fill="#00ACEB" d="M36.9,0.8l-4.3,16.2c-0.8-0.2-1.6-0.2-2.4-0.2c-1.2,0-2.4,0.2-3.5,0.5c-1.9,0.5-3.7,1.5-5.2,2.7L9.6,8.1 c1.5-1.4,3.2-2.7,5-3.8l0.9-0.5c2.1-1.2,4.4-2.1,6.8-2.7c2.5-0.7,5.1-1,7.8-1C32.4,0,34.7,0.3,36.9,0.8z"/>
        <path fill="#21BCEC" d="M119.7,23.4c0.5,2.2,0.8,4.4,0.8,6.7c0,2.7-0.4,5.3-1,7.8c-0.6,2.4-1.6,4.7-2.7,6.8l-0.5,0.9 c-1.1,1.8-2.4,3.5-3.8,5l-11.8-11.8c1.3-1.5,2.2-3.3,2.7-5.2c0.3-1.1,0.5-2.3,0.5-3.5c0-0.8-0.1-1.6-0.2-2.3L119.7,23.4z"/>
        <path fill="#009CDD" d="M85.9,42.8l-4.4,16.2c-2-0.6-3.9-1.4-5.7-2.5L74.9,56c-2.1-1.3-4.1-2.8-5.8-4.5c0,0,0,0,0,0l-0.9-0.9 c-0.7-0.7-1.3-1.5-1.9-2.3l11.7-11.7l2.6,2.7c0.1,0.1,0.2,0.3,0.4,0.4C82.3,41,84,42.1,85.9,42.8z"/>
        <path fill="#009CDD" d="M54.2,12.1L42.6,23.7l0,0L40,21c-0.1-0.1-0.2-0.3-0.4-0.4c-1.4-1.4-3.1-2.5-5-3.2L39,1.3 c2,0.6,3.9,1.4,5.7,2.4l0.9,0.5c2.1,1.3,4.1,2.8,5.8,4.5c0,0,0,0,0,0l0.9,0.9C53,10.5,53.6,11.3,54.2,12.1z"/>
        <path fill="#00ACEB" d="M99,40.3l11.8,11.8c-1.5,1.4-3.2,2.7-5,3.8l-0.9,0.5c-2.1,1.2-4.4,2.1-6.8,2.7c-2.5,0.7-5.1,1-7.8,1 c-2.3,0-4.6-0.3-6.8-0.8L88,43.3c0.8,0.2,1.6,0.2,2.4,0.2c1.2,0,2.4-0.2,3.5-0.5C95.8,42.6,97.6,41.6,99,40.3z"/>
        <path fill="#FFA726" d="M37.4,41.3l11.8,12c-1.1,0.9-2.3,1.8-3.6,2.6l-1,0.5c-2.1,1.2-4.4,2.1-6.8,2.7c-2.5,0.7-5.1,1-7.8,1 c-2.7,0-5.3-0.4-7.8-1c-2.4-0.6-4.6-1.6-6.7-2.7l-1-0.6c-2.1-1.3-4.1-2.8-5.8-4.5c-1.7-1.7-3.3-3.7-4.5-5.8l-0.5-0.9 c-1-1.8-1.8-3.7-2.4-5.7l16.1-4.4c0.7,1.9,1.8,3.6,3.2,5.1c1.6,1.6,3.7,2.9,6,3.5c1.1,0.3,2.3,0.5,3.5,0.5 c1.2,0,2.4-0.2,3.5-0.5C35,42.7,36.3,42.1,37.4,41.3z"/>
        <path fill="#21BCEC" d="M8.1,9.6l11.8,11.8c-1.3,1.5-2.2,3.3-2.7,5.2c-0.3,1.1-0.5,2.3-0.5,3.5c0,0.8,0.1,1.6,0.2,2.3L0.8,36.9 C0.3,34.7,0,32.4,0,30.1c0-2.7,0.4-5.3,1-7.8c0.6-2.4,1.6-4.6,2.7-6.8l0.5-0.9C5.4,12.8,6.6,11.1,8.1,9.6z"/>
        <path fill="#FFA726" d="M119.2,21.3L103,25.7c-0.7-1.9-1.8-3.7-3.2-5.1c-1.6-1.6-3.7-2.9-6-3.5c-1.1-0.3-2.3-0.5-3.5-0.5 s-2.4,0.2-3.5,0.5c-1.4,0.4-2.7,1-3.9,1.7l-11.8-12c1.1-0.9,2.3-1.8,3.6-2.6l1-0.6c2.1-1.2,4.4-2.1,6.8-2.7c2.5-0.7,5.1-1,7.8-1 c2.7,0,5.3,0.4,7.8,1c2.4,0.6,4.6,1.6,6.8,2.7l1,0.6c2.1,1.3,4.1,2.8,5.8,4.5c1.7,1.7,3.3,3.7,4.5,5.8l0.5,0.9 C117.7,17.4,118.5,19.3,119.2,21.3z"/>
    </svg>
</svg>
