<svg fill="none" viewBox="841 529 817 817" xmlns="http://www.w3.org/2000/svg"><rect rx="80" fill="#FF0421" y="529" x="841" height="817" width="817"></rect><path d="M1249.77 576.871c156.99 0 284.3 127.309 284.3 284.304 0 156.995-127.31 284.305-284.3 284.305v152.63c-157 0-284.304-127.31-284.304-284.31 0-156.994 127.304-284.301 284.304-284.301V576.871Zm-1.32 219.963c-30.88 62.008-77.33 108.452-139.34 139.337v2.635c62.01 30.884 108.46 77.334 139.34 139.334h2.64c30.88-62 77.33-108.45 139.33-139.334v-2.635c-62-30.885-108.45-77.329-139.33-139.337h-2.64Z" fill="#FAFAF9"></path></svg>
