<?xml version="1.0" encoding="utf-8"?>
<!-- Generator: Adobe Illustrator 27.5.0, SVG Export Plug-In . SVG Version: 6.00 Build 0)  -->
<svg version="1.1" id="Layer_1" xmlns="http://www.w3.org/2000/svg" xmlns:xlink="http://www.w3.org/1999/xlink" x="0px" y="0px"
	 width="453.3px" height="60.2px" viewBox="0 0 453.3 60.2" style="enable-background:new 0 0 453.3 60.2;" xml:space="preserve">
<style type="text/css">
	.st0{fill:#00ACEB;}
	.st1{fill:#21BCEC;}
	.st2{fill:#009CDD;}
	.st3{fill:#FFA726;}
	.st4{fill:#FFFFFF;}
</style>
<g>
	<g>
		<g id="XMLID_00000115475698370251692660000011121444978376503938_">
			<g>
				<path class="st0" d="M36.9,0.8l-4.3,16.2c-0.8-0.2-1.6-0.2-2.4-0.2c-1.2,0-2.4,0.2-3.5,0.5c-1.9,0.5-3.7,1.5-5.2,2.7L9.6,8.1       c1.5-1.4,3.2-2.7,5-3.8l0.9-0.5c2.1-1.2,4.4-2.1,6.8-2.7c2.5-0.7,5.1-1,7.8-1C32.4,0,34.7,0.3,36.9,0.8z"/>
				<path class="st1" d="M119.7,23.4c0.5,2.2,0.8,4.4,0.8,6.7c0,2.7-0.4,5.3-1,7.8c-0.6,2.4-1.6,4.7-2.7,6.8l-0.5,0.9       c-1.1,1.8-2.4,3.5-3.8,5l-11.8-11.8c1.3-1.5,2.2-3.3,2.7-5.2c0.3-1.1,0.5-2.3,0.5-3.5c0-0.8-0.1-1.6-0.2-2.3L119.7,23.4z"/>
				<path class="st2" d="M85.9,42.8l-4.4,16.2c-2-0.6-3.9-1.4-5.7-2.5L74.9,56c-2.1-1.3-4.1-2.8-5.8-4.5c0,0,0,0,0,0l-0.9-0.9       c-0.7-0.7-1.3-1.5-1.9-2.3l11.7-11.7l2.6,2.7c0.1,0.1,0.2,0.3,0.4,0.4C82.3,41,84,42.1,85.9,42.8z"/>
				<path class="st2" d="M54.2,12.1L42.6,23.7l0,0L40,21c-0.1-0.1-0.2-0.3-0.4-0.4c-1.4-1.4-3.1-2.5-5-3.2L39,1.3       c2,0.6,3.9,1.4,5.7,2.4l0.9,0.5c2.1,1.3,4.1,2.8,5.8,4.5c0,0,0,0,0,0l0.9,0.9C53,10.5,53.6,11.3,54.2,12.1z"/>
				<path class="st0" d="M99,40.3l11.8,11.8c-1.5,1.4-3.2,2.7-5,3.8l-0.9,0.5c-2.1,1.2-4.4,2.1-6.8,2.7c-2.5,0.7-5.1,1-7.8,1       c-2.3,0-4.6-0.3-6.8-0.8L88,43.3c0.8,0.2,1.6,0.2,2.4,0.2c1.2,0,2.4-0.2,3.5-0.5C95.8,42.6,97.6,41.6,99,40.3z"/>
				<path class="st3" d="M37.4,41.3l11.8,12c-1.1,0.9-2.3,1.8-3.6,2.6l-1,0.5c-2.1,1.2-4.4,2.1-6.8,2.7c-2.5,0.7-5.1,1-7.8,1       c-2.7,0-5.3-0.4-7.8-1c-2.4-0.6-4.6-1.6-6.7-2.7l-1-0.6c-2.1-1.3-4.1-2.8-5.8-4.5c-1.7-1.7-3.3-3.7-4.5-5.8l-0.5-0.9       c-1-1.8-1.8-3.7-2.4-5.7l16.1-4.4c0.7,1.9,1.8,3.6,3.2,5.1c1.6,1.6,3.7,2.9,6,3.5c1.1,0.3,2.3,0.5,3.5,0.5       c1.2,0,2.4-0.2,3.5-0.5C35,42.7,36.3,42.1,37.4,41.3z"/>
				<path class="st1" d="M8.1,9.6l11.8,11.8c-1.3,1.5-2.2,3.3-2.7,5.2c-0.3,1.1-0.5,2.3-0.5,3.5c0,0.8,0.1,1.6,0.2,2.3L0.8,36.9       C0.3,34.7,0,32.4,0,30.1c0-2.7,0.4-5.3,1-7.8c0.6-2.4,1.6-4.6,2.7-6.8l0.5-0.9C5.4,12.8,6.6,11.1,8.1,9.6z"/>
				<path class="st3" d="M119.2,21.3L103,25.7c-0.7-1.9-1.8-3.7-3.2-5.1c-1.6-1.6-3.7-2.9-6-3.5c-1.1-0.3-2.3-0.5-3.5-0.5       s-2.4,0.2-3.5,0.5c-1.4,0.4-2.7,1-3.9,1.7l-11.8-12c1.1-0.9,2.3-1.8,3.6-2.6l1-0.6c2.1-1.2,4.4-2.1,6.8-2.7c2.5-0.7,5.1-1,7.8-1       c2.7,0,5.3,0.4,7.8,1c2.4,0.6,4.6,1.6,6.8,2.7l1,0.6c2.1,1.3,4.1,2.8,5.8,4.5c1.7,1.7,3.3,3.7,4.5,5.8l0.5,0.9       C117.7,17.4,118.5,19.3,119.2,21.3z"/>
			</g>
		</g>
	</g>
	<g>
		<g>
			<g>
				<polygon class="st4" points="143.2,44.8 143.2,15.3 147.9,15.3 160.2,34.7 160.2,15.3 166,15.3 166,44.8 161.3,44.8 149.1,25.3        149.1,44.8     "/>
			</g>
			<g>
				<path class="st4" d="M185,45c-0.6,0-1.4-0.1-2.2-0.2c-0.8-0.1-1.6-0.4-2.4-0.8c-0.7-0.4-1.4-1.1-1.9-1.9       c-0.5-0.9-0.7-2.1-0.7-3.6V22c0-1.3,0.2-2.4,0.6-3.3c0.4-0.9,0.9-1.6,1.6-2.1c0.7-0.5,1.4-0.9,2.2-1.1c0.8-0.2,1.6-0.3,2.3-0.3       c2,0,3.7,0,5.2,0.1c1.5,0.1,2.9,0.1,4.1,0.2c1.2,0.1,2.3,0.1,3.3,0.2v4.9h-10.9c-0.8,0-1.4,0.2-1.9,0.6c-0.4,0.4-0.7,1-0.7,1.8       v4.3l11.6,0.3v4.7l-11.6,0.3v4.1c0,0.7,0.1,1.2,0.3,1.6c0.2,0.4,0.5,0.6,0.9,0.8c0.4,0.1,0.8,0.2,1.2,0.2h11v4.9       c-1.2,0.1-2.4,0.2-3.9,0.3c-1.4,0.1-2.8,0.1-4.3,0.2C187.6,44.9,186.3,45,185,45z"/>
			</g>
			<g>
				<polygon class="st4" points="214.6,44.8 214.6,20.6 206.6,20.6 206.6,15.3 228.5,15.3 228.5,20.6 220.5,20.6 220.5,44.8     "/>
			</g>
			<g>
				<polygon class="st4" points="238.8,44.8 238.8,15.3 244.6,15.3 244.6,27.5 255.6,27.5 255.6,15.3 261.5,15.3 261.5,44.8        255.6,44.8 255.6,32.8 244.6,32.8 244.6,44.8     "/>
			</g>
			<g>
				<path class="st4" d="M280.7,45c-0.6,0-1.4-0.1-2.2-0.2c-0.8-0.1-1.6-0.4-2.4-0.8c-0.7-0.4-1.4-1.1-1.9-1.9       c-0.5-0.9-0.7-2.1-0.7-3.6V22c0-1.3,0.2-2.4,0.6-3.3c0.4-0.9,0.9-1.6,1.6-2.1c0.7-0.5,1.4-0.9,2.2-1.1c0.8-0.2,1.6-0.3,2.3-0.3       c2,0,3.7,0,5.2,0.1c1.5,0.1,2.9,0.1,4.1,0.2c1.2,0.1,2.3,0.1,3.3,0.2v4.9H282c-0.8,0-1.4,0.2-1.9,0.6c-0.4,0.4-0.7,1-0.7,1.8       v4.3l11.6,0.3v4.7l-11.6,0.3v4.1c0,0.7,0.1,1.2,0.3,1.6c0.2,0.4,0.5,0.6,0.9,0.8c0.4,0.1,0.8,0.2,1.2,0.2h11v4.9       c-1.2,0.1-2.4,0.2-3.9,0.3c-1.4,0.1-2.8,0.1-4.3,0.2C283.3,44.9,282,45,280.7,45z"/>
			</g>
			<g>
				<path class="st4" d="M304.2,44.8V15.3h12.1c1.2,0,2.2,0.1,3.2,0.4c1,0.3,1.9,0.7,2.6,1.4s1.4,1.6,1.8,2.9       c0.4,1.2,0.7,2.8,0.7,4.7c0,1.4-0.1,2.5-0.4,3.5c-0.3,1-0.6,1.7-1.1,2.4c-0.4,0.6-0.9,1.1-1.5,1.5c-0.6,0.4-1.1,0.7-1.7,0.9       l5.4,11.8h-6l-4.7-10.9c-0.3,0-0.7,0-1.1,0c-0.4,0-0.8,0-1.2,0c-0.4,0-0.8,0-1.3,0c-0.4,0-0.8,0-1.1,0v11H304.2z M310,29.1h5.2       c0.5,0,1-0.1,1.4-0.2c0.4-0.1,0.8-0.4,1.1-0.7c0.3-0.3,0.6-0.8,0.7-1.4c0.2-0.6,0.3-1.3,0.3-2.2c0-0.8-0.1-1.5-0.3-2       c-0.2-0.6-0.4-1-0.7-1.3c-0.3-0.3-0.7-0.5-1.1-0.6c-0.4-0.1-0.9-0.2-1.4-0.2H310V29.1z"/>
			</g>
			<g>
				<polygon class="st4" points="335.2,44.8 338.6,15.3 344.2,15.3 350.9,37.9 357.6,15.3 363.2,15.3 366.6,44.8 361,44.8 358.4,23        359.3,23.1 353.6,44.8 348.1,44.8 342.3,23.1 343.3,23.1 340.9,44.8     "/>
			</g>
			<g>
				<rect x="377.9" y="15.3" class="st4" width="5.8" height="29.5"/>
			</g>
			<g>
				<polygon class="st4" points="396.1,44.8 396.1,15.3 400.8,15.3 413,34.7 413,15.3 418.9,15.3 418.9,44.8 414.2,44.8 402,25.3        402,44.8     "/>
			</g>
			<g>
				<path class="st4" d="M430.8,44.8V15.3h12.3c2,0,3.6,0.4,4.9,1.1c1.3,0.7,2.4,1.7,3.1,3c0.8,1.3,1.3,2.9,1.7,4.7       c0.3,1.8,0.5,3.8,0.5,6c0,3.3-0.4,6.1-1.1,8.2c-0.7,2.2-1.9,3.8-3.4,4.9c-1.5,1.1-3.4,1.6-5.7,1.6H430.8z M436.6,39.5h5.9       c1.2,0,2.2-0.3,2.9-1c0.7-0.7,1.2-1.8,1.5-3.2c0.3-1.4,0.5-3.1,0.5-5.2c0-1.9-0.1-3.5-0.3-4.7c-0.2-1.2-0.5-2.2-0.9-2.9       c-0.4-0.7-0.9-1.2-1.5-1.4c-0.6-0.3-1.3-0.4-2.1-0.4h-5.9V39.5z"/>
			</g>
		</g>
	</g>
</g>
</svg>
